<?xml version="1.0" encoding="UTF-8"?>
<svg version="1.1" xmlns="http://www.w3.org/2000/svg" width="1030" height="539">
<path d="M0 0 C0.95583984 -0.02900391 1.91167969 -0.05800781 2.89648438 -0.08789062 C12.61314408 -0.17399599 19.54472304 2.87074297 26.65234375 9.44140625 C29.12781957 12.23141311 30.15581671 14.77440992 31.3125 18.3125 C31.8075 19.7975 31.8075 19.7975 32.3125 21.3125 C32.40115176 23.22968848 32.43011757 25.14985913 32.42602539 27.0690918 C32.42591209 28.84058846 32.42591209 28.84058846 32.42579651 30.64787292 C32.42063522 31.92294205 32.41547394 33.19801117 32.41015625 34.51171875 C32.4087413 35.81704056 32.40732635 37.12236237 32.40586853 38.46723938 C32.4020538 41.93439656 32.39223244 45.40151174 32.38116455 48.86865234 C32.37092798 52.40787182 32.3663661 55.9470981 32.36132812 59.48632812 C32.35060923 66.4284044 32.33302087 73.37044585 32.3125 80.3125 C24.7225 80.3125 17.1325 80.3125 9.3125 80.3125 C8.9825 78.6625 8.6525 77.0125 8.3125 75.3125 C7.77625 75.93125 7.24 76.55 6.6875 77.1875 C0.18859404 83.00231059 -9.43247527 81.92196949 -17.61767578 81.50341797 C-24.62483148 80.85708679 -29.10365254 77.57000322 -33.49609375 72.2890625 C-37.422586 65.77494748 -37.42642339 58.68371133 -36.6875 51.3125 C-35.75573271 48.30586948 -34.46159245 45.89971816 -32.6875 43.3125 C-32.11 42.405 -31.5325 41.4975 -30.9375 40.5625 C-23.46528293 33.09028293 -12.29208437 31.18222636 -2.13598633 31.11035156 C1.68233248 31.13157034 5.49557793 31.20570529 9.3125 31.3125 C9.00200274 29.87456608 8.6890224 28.4371682 8.375 27 C8.20097656 26.19949219 8.02695313 25.39898437 7.84765625 24.57421875 C7.31363841 22.167099 7.31363841 22.167099 6.3125 19.3125 C0.76914217 18.33998108 -3.42061424 17.83396552 -8.6875 20.3125 C-9.6775 22.6225 -10.6675 24.9325 -11.6875 27.3125 C-19.2775 27.3125 -26.8675 27.3125 -34.6875 27.3125 C-32.85863272 19.08259725 -31.18843574 12.01615117 -24.6875 6.3125 C-16.32619277 1.26313914 -9.61265641 0.09530063 0 0 Z M-12.6875 51.3125 C-13.41999934 58.0738326 -13.41999934 58.0738326 -10.625 63.9375 C-6.95459936 65.65555988 -4.70663779 65.80607833 -0.6875 65.3125 C3.93479488 63.59046857 6.86699419 61.63916412 9.3125 57.3125 C9.62844936 54.28040535 9.55058059 51.34802754 9.3125 48.3125 C6.77017658 48.23097656 4.23050798 48.17176284 1.6875 48.125 C0.61822266 48.08729492 0.61822266 48.08729492 -0.47265625 48.04882812 C-5.31026416 47.98225554 -8.43488338 48.75690547 -12.6875 51.3125 Z " fill="#000000" transform="translate(218.6875,235.6875)"/>
<path d="M0 0 C1.29744141 -0.04350586 1.29744141 -0.04350586 2.62109375 -0.08789062 C11.88247739 -0.17814399 20.19057717 3.34896737 26.93359375 9.8046875 C37.22304187 20.94089819 36.375 32.16381795 36.375 47.3125 C19.875 47.3125 3.375 47.3125 -13.625 47.3125 C-10.8802821 58.38863837 -10.8802821 58.38863837 -7 62.0625 C-1.4549838 64.1162097 3.75969421 64.31410647 9.3125 62.1875 C11.99451852 59.97594821 11.99451852 59.97594821 14.375 54.3125 C21.305 54.3125 28.235 54.3125 35.375 54.3125 C36.41205629 59.49778146 36.4390006 60.07282073 34.125 64.375 C33.68671875 65.21160156 33.2484375 66.04820312 32.796875 66.91015625 C31.43572784 69.20989664 30.1598962 71.32059264 28.375 73.3125 C27.385 73.3125 26.395 73.3125 25.375 73.3125 C24.88 74.7975 24.88 74.7975 24.375 76.3125 C17.2201286 81.57343485 9.53073704 81.65255406 1 81.625 C0.01 81.64111328 -0.98 81.65722656 -2 81.67382812 C-11.55800766 81.68013288 -19.02671024 79.6635958 -26.4765625 73.546875 C-35.63883809 64.01810839 -36.83720769 54.73072493 -36.9375 42.1875 C-36.96650391 41.0015625 -36.99550781 39.815625 -37.02539062 38.59375 C-37.10922901 26.90796882 -33.8814979 17.99492042 -26 9.25 C-18.69197331 2.14756997 -9.78996765 0.10656714 0 0 Z M-10.4375 22.0625 C-12.11511432 24.93499549 -12.11511432 24.93499549 -12.625 31.3125 C-4.045 31.3125 4.535 31.3125 13.375 31.3125 C12.14698927 23.13632702 12.14698927 23.13632702 7.375 18.3125 C0.60492622 16.05580874 -5.25132136 17.05515511 -10.4375 22.0625 Z " fill="#000000" transform="translate(811.625,235.6875)"/>
<path d="M0 0 C1.39940333 0.70341689 2.77882088 1.44942097 4.125 2.25 C4.74761719 2.58515625 5.37023437 2.9203125 6.01171875 3.265625 C8.48469231 4.7182808 9.93515149 5.64593657 10.8125 8.4375 C10.915625 9.035625 11.01875 9.63375 11.125 10.25 C12.115 10.58 13.105 10.91 14.125 11.25 C21.2244213 21.11907208 20.125 33.69018808 20.125 45.25 C3.625 45.25 -12.875 45.25 -29.875 45.25 C-27.03272026 55.2387205 -27.03272026 55.2387205 -19.875 61.25 C-14.89433027 61.79644038 -10.9791693 61.79204675 -6.4375 59.5625 C-3.73535981 57.47138402 -3.73535981 57.47138402 -2.8515625 54.625 C-0.875 52.25 -0.875 52.25 1.23754883 51.84643555 C3.94474079 51.75668723 6.60663476 51.81544501 9.3125 51.9375 C10.72305664 51.97133789 10.72305664 51.97133789 12.16210938 52.00585938 C14.48467473 52.06480773 16.80403776 52.14702215 19.125 52.25 C20.52767332 56.45801997 19.17582768 58.63640703 17.4921875 62.61328125 C13.72519783 69.8781899 7.86118623 75.54841299 0.11328125 78.33203125 C-4.7696226 79.66454765 -9.65800239 79.57964212 -14.6875 79.5625 C-16.08838867 79.58666992 -16.08838867 79.58666992 -17.51757812 79.61132812 C-26.91324275 79.61784836 -34.92062374 77.77369053 -42.3125 71.8125 C-44.29201365 69.83298635 -45.23522387 67.96904857 -45.875 65.25 C-46.535 65.25 -47.195 65.25 -47.875 65.25 C-54.31242436 49.45336826 -56.36672376 34.4071772 -49.84765625 18.19140625 C-40.81197601 0.15633365 -18.69717208 -7.32377708 0 0 Z M-25.875 19.25 C-27.195 22.55 -28.515 25.85 -29.875 29.25 C-20.965 29.25 -12.055 29.25 -2.875 29.25 C-3.74369872 22.13814311 -3.74369872 22.13814311 -7.875 17.25 C-10.91930375 14.96677218 -14.08705774 14.81318058 -17.8515625 14.953125 C-21.48931844 15.48684981 -23.22571473 16.72113679 -25.875 19.25 Z " fill="#000000" transform="translate(473.875,237.75)"/>
<path d="M0 0 C6.63509372 4.08141899 10.57841836 10.17700831 12.64985657 17.61064148 C13.60749012 22.84389826 13.31314883 28.21901696 13.26953125 33.51953125 C13.26670135 34.81919327 13.26387146 36.11885529 13.26095581 37.457901 C13.2533653 40.89218005 13.23375698 44.32628657 13.21154785 47.76049805 C13.19098996 51.27325101 13.18193295 54.78603219 13.171875 58.29882812 C13.15050609 65.17585873 13.11536203 72.05274704 13.07421875 78.9296875 C5.15421875 78.9296875 -2.76578125 78.9296875 -10.92578125 78.9296875 C-10.93996094 75.01738281 -10.95414063 71.10507812 -10.96875 67.07421875 C-10.99936445 63.28466149 -11.03845513 59.49527991 -11.07836914 55.70581055 C-11.10156447 53.07241021 -11.11594841 50.4389169 -11.12133789 47.80541992 C-11.13061553 44.01942907 -11.17158502 40.23490375 -11.21875 36.44921875 C-11.21481735 35.27196732 -11.2108847 34.09471588 -11.20683289 32.88179016 C-11.12390226 26.21192738 -11.12390226 26.21192738 -14.34106445 20.68432617 C-18.07554563 18.14916832 -20.58098468 18.13651977 -24.92578125 18.9296875 C-28.21826435 20.24668074 -29.55577968 21.38017352 -31.53051758 24.31298828 C-33.50973359 29.44336552 -33.4053578 34.21621071 -33.4375 39.671875 C-33.4554512 40.79538361 -33.4734024 41.91889221 -33.49189758 43.07644653 C-33.54592739 46.65248909 -33.57987371 50.22839869 -33.61328125 53.8046875 C-33.64646069 56.23439347 -33.68095092 58.66408191 -33.71679688 61.09375 C-33.80410877 67.03908089 -33.86424291 72.98381077 -33.92578125 78.9296875 C-41.51578125 78.9296875 -49.10578125 78.9296875 -56.92578125 78.9296875 C-56.92578125 52.8596875 -56.92578125 26.7896875 -56.92578125 -0.0703125 C-49.33578125 -0.0703125 -41.74578125 -0.0703125 -33.92578125 -0.0703125 C-33.59578125 2.5696875 -33.26578125 5.2096875 -32.92578125 7.9296875 C-31.93578125 6.8159375 -31.93578125 6.8159375 -30.92578125 5.6796875 C-22.79501467 -2.16069456 -10.59910707 -3.87737695 0 0 Z " fill="#000000" transform="translate(561.92578125,237.0703125)"/>
<path d="M0 0 C7.92 0 15.84 0 24 0 C24.03738281 3.91230469 24.07476563 7.82460937 24.11328125 11.85546875 C24.15949357 15.64499501 24.21072848 19.43442238 24.26245117 23.22387695 C24.29570325 25.85727936 24.32373424 28.49075309 24.34643555 31.12426758 C24.37997529 34.90997711 24.4322932 38.69503289 24.48828125 42.48046875 C24.49467117 43.65772018 24.5010611 44.83497162 24.50764465 46.04789734 C24.53733589 47.69904289 24.53733589 47.69904289 24.56762695 49.38354492 C24.57873001 50.34951096 24.58983307 51.31547699 24.60127258 52.31071472 C25.07698837 55.51926122 26.0591092 57.4150647 28 60 C32.55062413 61.51687471 36.38234396 61.71895824 40.8125 59.75 C43.18235265 57.85411788 43.89592037 56.78619784 45 54 C45.32502423 51.41610264 45.32502423 51.41610264 45.31884766 48.58886719 C45.33871735 47.50804871 45.35858704 46.42723022 45.37905884 45.31365967 C45.39061005 44.15312073 45.40216125 42.99258179 45.4140625 41.796875 C45.43342865 40.60394836 45.4527948 39.41102173 45.4727478 38.1819458 C45.53253267 34.37136996 45.57892527 30.5607639 45.625 26.75 C45.66318072 24.16665348 45.7022325 21.58331968 45.7421875 19 C45.83823358 12.66676993 45.9222692 6.33348027 46 0 C53.59 0 61.18 0 69 0 C69 26.07 69 52.14 69 79 C61.41 79 53.82 79 46 79 C45.67 77.02 45.34 75.04 45 73 C44.113125 73.78375 43.22625 74.5675 42.3125 75.375 C37.07789154 80.00093306 31.8925727 80.36392639 25.1875 80.375 C24.41857422 80.39949219 23.64964844 80.42398438 22.85742188 80.44921875 C16.1549821 80.48315515 10.83678253 78.76558914 5.9765625 74.02734375 C5.53054688 73.33769531 5.08453125 72.64804687 4.625 71.9375 C3.93277344 70.93009766 3.93277344 70.93009766 3.2265625 69.90234375 C-0.41386691 61.28820665 -0.27658209 51.87268419 -0.1953125 42.67578125 C-0.1924826 41.44836716 -0.18965271 40.22095306 -0.18673706 38.9563446 C-0.1756325 35.07495962 -0.15054606 31.19381405 -0.125 27.3125 C-0.11495763 24.6647169 -0.10583399 22.01693014 -0.09765625 19.36914062 C-0.07743532 12.91259624 -0.03826741 6.45656291 0 0 Z " fill="#000000" transform="translate(640,237)"/>
<path d="M0 0 C0.8559375 -0.02449219 1.711875 -0.04898438 2.59375 -0.07421875 C11.3308184 -0.1139327 18.36072126 3.05146643 25.25 8.375 C31.22530854 14.49257779 34.71397522 21.79860347 35.25 30.375 C34.25 31.375 34.25 31.375 32.11694336 31.48852539 C31.20050049 31.48328857 30.28405762 31.47805176 29.33984375 31.47265625 C28.35048828 31.46943359 27.36113281 31.46621094 26.34179688 31.46289062 C25.30087891 31.45451172 24.25996094 31.44613281 23.1875 31.4375 C22.14271484 31.43298828 21.09792969 31.42847656 20.02148438 31.42382812 C17.4309334 31.41199913 14.84049441 31.39551689 12.25 31.375 C11.85167969 30.43527344 11.85167969 30.43527344 11.4453125 29.4765625 C10.91550781 28.25066406 10.91550781 28.25066406 10.375 27 C10.02695312 26.18789063 9.67890625 25.37578125 9.3203125 24.5390625 C8.32553933 22.23697701 8.32553933 22.23697701 6.25 20.375 C2.15084722 19.62635234 -1.65914522 19.56962963 -5.75 20.375 C-9.4443669 23.35120959 -11.26984666 26.93453997 -12.75 31.375 C-13.02844438 34.59919388 -13.0274649 37.82759239 -13.0625 41.0625 C-13.10600586 42.37250977 -13.10600586 42.37250977 -13.15039062 43.70898438 C-13.21791275 50.66376338 -11.7703561 56.14634348 -6.9375 61.3125 C-3.79057437 62.84100674 -1.24785519 63.2543843 2.25 63.375 C5.51750881 62.03373157 5.51750881 62.03373157 8.25 60.375 C8.91 60.375 9.57 60.375 10.25 60.375 C11.24 57.075 12.23 53.775 13.25 50.375 C20.51 50.375 27.77 50.375 35.25 50.375 C34.23037363 60.57126372 32.45086052 67.00534888 25.32421875 74.36328125 C17.7221319 80.50284237 9.29444487 81.8750364 -0.25 81.75 C-1.13558594 81.76160156 -2.02117187 81.77320313 -2.93359375 81.78515625 C-13.48756546 81.73866298 -21.04700044 78.58103185 -28.75 71.375 C-38.03219139 60.08584831 -38.62379084 46.28587161 -37.75 32.375 C-37.1540598 28.7949769 -36.21506853 25.68705663 -34.75 22.375 C-34.29753906 21.30572266 -34.29753906 21.30572266 -33.8359375 20.21484375 C-29.52823507 10.84646651 -23.93834963 6.75794839 -14.75 2.375 C-14.01265625 1.99601563 -13.2753125 1.61703125 -12.515625 1.2265625 C-8.35758896 -0.05373673 -4.3266735 0.0064004 0 0 Z " fill="#000000" transform="translate(298.75,235.625)"/>
<path d="M0 0 C4.21471574 3.14240031 7.22683862 6.61359328 9.87109375 11.140625 C10.24492187 11.77097656 10.61875 12.40132812 11.00390625 13.05078125 C12.71439274 17.1728996 12.55638404 21.73468901 12.87109375 26.140625 C5.61109375 26.140625 -1.64890625 26.140625 -9.12890625 26.140625 C-10.36588542 23.56901042 -11.60286458 20.99739583 -12.83984375 18.42578125 C-13.92089787 16.01158698 -13.92089787 16.01158698 -16.12890625 15.140625 C-17.93932418 15.04429603 -19.75343378 15.01080967 -21.56640625 15.015625 C-22.53449219 15.01304687 -23.50257813 15.01046875 -24.5 15.0078125 C-27.23908454 15.02848527 -27.23908454 15.02848527 -30.12890625 16.140625 C-35.38536169 24.76272457 -36.44168794 35.21522593 -34.58984375 44.984375 C-33.34799666 49.62424326 -32.19525504 53.27026115 -28.12890625 56.140625 C-23.91106158 58.53453684 -20.77668392 58.38556545 -16.12890625 57.140625 C-11.41003064 53.49422112 -10.62493514 50.9646924 -8.12890625 45.140625 C-1.19890625 45.140625 5.73109375 45.140625 12.87109375 45.140625 C12.15323482 56.91351144 12.15323482 56.91351144 8.87109375 62.140625 C8.23171875 63.213125 7.59234375 64.285625 6.93359375 65.390625 C4.89639973 68.10688369 3.89187035 68.87384772 0.87109375 70.140625 C0.41935791 70.61806152 -0.03237793 71.09549805 -0.49780273 71.58740234 C-5.93457398 76.76458221 -14.52774285 76.60830674 -21.56640625 76.515625 C-22.8822168 76.53302734 -22.8822168 76.53302734 -24.22460938 76.55078125 C-34.36207248 76.50595827 -41.90321002 74.28539216 -49.2265625 67.16796875 C-58.13469363 57.6744984 -59.75065244 46.49031024 -59.59448242 33.93579102 C-59.18928855 22.26683585 -56.54213504 13.41318166 -48.70703125 4.52734375 C-35.64483554 -7.56508289 -15.13920466 -8.77324934 0 0 Z " fill="#000000" transform="translate(400.12890625,240.859375)"/>
<path d="M0 0 C-0.33 7.59 -0.66 15.18 -1 23 C3.89153471 22.9604321 3.89153471 22.9604321 8.78295898 22.90991211 C10.52221717 22.90275087 12.26145304 22.94975298 14 23 C15.82116003 24.82116003 15.1323508 27.30671764 15.13671875 29.7265625 C15.13285156 30.47679687 15.12898437 31.22703125 15.125 32 C15.13080078 33.12535156 15.13080078 33.12535156 15.13671875 34.2734375 C15.12661053 39.87338947 15.12661053 39.87338947 14 41 C11.46950598 41.07313567 8.96695163 41.09247527 6.4375 41.0625 C5.72658203 41.05798828 5.01566406 41.05347656 4.28320312 41.04882812 C2.52209987 41.03700864 0.76103964 41.01907263 -1 41 C-0.9062306 46.03572188 -0.80008491 51.07097625 -0.68261719 56.10620117 C-0.64440715 57.81804314 -0.60954048 59.52996322 -0.578125 61.24194336 C-0.53230062 63.70715183 -0.47433587 66.17182633 -0.4140625 68.63671875 C-0.40251129 69.39836838 -0.39096008 70.16001801 -0.37905884 70.94474792 C-0.23387794 77.50564369 -0.23387794 77.50564369 3 83 C5.01964199 83.07244053 7.04167124 83.08377188 9.0625 83.0625 C11.021875 83.041875 12.98125 83.02125 15 83 C15 88.94 15 94.88 15 101 C6.21723063 103.92758979 -4.24807605 104.71863857 -13.06640625 101.16796875 C-18.15211258 98.09599664 -21.34485577 94.14025676 -23.07592773 88.48510742 C-24.24576917 83.582253 -24.25291514 78.83072932 -24.1953125 73.8125 C-24.1924826 72.86938965 -24.18965271 71.9262793 -24.18673706 70.95458984 C-24.17562442 67.96959244 -24.15053672 64.98490531 -24.125 62 C-24.11495866 59.96484811 -24.10583484 57.92969148 -24.09765625 55.89453125 C-24.07571435 50.92956963 -24.04124673 45.96483725 -24 41 C-26.97 41 -29.94 41 -33 41 C-33 35.06 -33 29.12 -33 23 C-30.03 23 -27.06 23 -24 23 C-24 18.38 -24 13.76 -24 9 C-4.5 0 -4.5 0 0 0 Z " fill="#000000" transform="translate(615,214)"/>
<path d="M0 0 C4.98325163 0.55018133 9.12523177 1.64248875 13.75 3.5625 C14.70011963 3.95296509 14.70011963 3.95296509 15.66943359 4.35131836 C17.78399508 5.22410374 19.89251217 6.11027565 22 7 C22.77053711 7.32484375 23.54107422 7.6496875 24.33496094 7.984375 C27.58113606 9.35395801 30.82695099 10.72437064 34.07104492 12.09887695 C39.71648854 14.48342694 45.39376982 16.7390142 51.125 18.91015625 C53.94699982 19.9799089 56.7573327 21.07440309 59.5625 22.1875 C60.32691406 22.49042969 61.09132813 22.79335937 61.87890625 23.10546875 C63.9691067 23.98697133 65.98354228 24.96205011 68 26 C68.02690104 28.79173055 68.04679053 31.58320348 68.0625 34.375 C68.07087891 35.1690625 68.07925781 35.963125 68.08789062 36.78125 C68.11328125 42.7734375 68.11328125 42.7734375 67 45 C65.15609477 45.82349166 63.27204354 46.55764834 61.375 47.25 C60.1890625 47.69214844 59.003125 48.13429687 57.78125 48.58984375 C57.15605469 48.82171387 56.53085937 49.05358398 55.88671875 49.29248047 C46.07722513 52.97104058 36.43549459 57.07154005 26.7956543 61.16796875 C21.64003894 63.34608565 16.45370187 65.34754586 11.16796875 67.19140625 C8.73386123 68.0554473 8.73386123 68.0554473 5.5 69.75 C3 71 3 71 0 71 C0 63.41 0 55.82 0 48 C7 45.375 7 45.375 9.34033203 44.49902344 C13.08240258 43.09809528 16.82120249 41.68928854 20.5546875 40.265625 C21.64136719 39.85304443 21.64136719 39.85304443 22.75 39.43212891 C24.14944166 38.90058546 25.54790933 38.3664695 26.9453125 37.82958984 C31.77513519 36 31.77513519 36 34 36 C34 35.34 34 34.68 34 34 C33.26136719 33.86851562 32.52273438 33.73703125 31.76171875 33.6015625 C29.26427789 33.05756548 27.16179627 32.35922248 24.8125 31.375 C21.35002433 29.94896519 17.87756709 28.5594693 14.3828125 27.21484375 C13.56965576 26.9017627 12.75649902 26.58868164 11.91870117 26.26611328 C10.27368455 25.63387527 8.62801947 25.00332173 6.98168945 24.37451172 C1.11027946 22.11027946 1.11027946 22.11027946 0 21 C-0.08685603 19.43827255 -0.10702219 17.87270656 -0.09765625 16.30859375 C-0.09443359 15.36435547 -0.09121094 14.42011719 -0.08789062 13.44726562 C-0.07951172 12.45404297 -0.07113281 11.46082031 -0.0625 10.4375 C-0.05798828 9.44041016 -0.05347656 8.44332031 -0.04882812 7.41601562 C-0.03700007 4.94395151 -0.02051849 2.47200482 0 0 Z " fill="#DC00FE" transform="translate(569,141)"/>
<path d="M0 0 C1.65394117 1.65394117 1.12999683 3.60315413 1.1328125 5.875 C1.13474609 7.35226563 1.13474609 7.35226563 1.13671875 8.859375 C1.13285156 9.89578125 1.12898437 10.9321875 1.125 12 C1.13080078 13.55460938 1.13080078 13.55460938 1.13671875 15.140625 C1.13542969 16.12546875 1.13414062 17.1103125 1.1328125 18.125 C1.13168457 19.03507812 1.13055664 19.94515625 1.12939453 20.8828125 C1 23 1 23 0 24 C-2.22667114 24.27132946 -4.45650531 24.51687621 -6.6875 24.75 C-12.78628152 25.59377852 -16.07933453 26.20807554 -20 31 C-22.31460843 36.28923003 -22.34203434 41.32029961 -22.4140625 46.9921875 C-22.43342865 47.93812775 -22.4527948 48.88406799 -22.4727478 49.8586731 C-22.53227049 52.86402522 -22.57881946 55.86941621 -22.625 58.875 C-22.66320492 60.91928704 -22.70225811 62.96355842 -22.7421875 65.0078125 C-22.83953773 70.00512434 -22.91932313 75.00228016 -23 80 C-30.59 80 -38.18 80 -46 80 C-46 53.93 -46 27.86 -46 1 C-38.41 1 -30.82 1 -23 1 C-22.67 4.3 -22.34 7.6 -22 11 C-21.319375 10.0925 -20.63875 9.185 -19.9375 8.25 C-14.65479902 1.90175423 -8.1035559 -0.36015804 0 0 Z " fill="#000000" transform="translate(769,236)"/>
</svg>
