<?xml version="1.0" encoding="UTF-8"?>
<svg version="1.1" xmlns="http://www.w3.org/2000/svg" width="4096" height="4096">
<path d="M0 0 C314.94437947 0 314.94437947 0 383.47314453 65.54052734 C384.50315775 66.52508427 385.53812459 67.5044814 386.57763672 68.47900391 C434.58628351 113.59749805 452.4297057 181.10931624 455 245 C455.16825611 250.58279306 455.19598769 256.16502157 455.1875 261.75 C455.18689575 262.49879425 455.1862915 263.2475885 455.18566895 264.01907349 C455.04825158 327.58549899 442.86902404 393.54102662 405 446 C404.56300781 446.60666504 404.12601563 447.21333008 403.67578125 447.83837891 C397.68233363 456.0701487 391.03905342 463.65576613 384 471 C383.44715332 471.58539551 382.89430664 472.17079102 382.32470703 472.77392578 C372.97151401 482.64140157 363.0454069 491.08599535 352 499 C351.41379883 499.43086914 350.82759766 499.86173828 350.22363281 500.30566406 C331.83185863 513.77164133 310.5489481 523.77486045 289 531 C287.69627441 531.44931885 287.69627441 531.44931885 286.36621094 531.90771484 C197.89723226 562.08878954 82.25707224 548 0 548 C0 367.16 0 186.32 0 0 Z M146 120 C146 220.98 146 321.96 146 426 C212.47371886 426.39699408 212.47371886 426.39699408 267.5625 393.8125 C277.08333779 383.98994552 283.37820211 372.3376196 289 360 C289.46148438 359.00097656 289.92296875 358.00195312 290.3984375 356.97265625 C301.97177846 329.51361479 304.22942046 297.95688546 304.1875 268.5 C304.18659363 267.31612701 304.18659363 267.31612701 304.18566895 266.1083374 C304.10856864 228.86794884 299.89979233 185.70670205 275 156 C274.29101562 155.14148437 273.58203125 154.28296875 272.8515625 153.3984375 C261.66554825 140.4069613 248.01933891 131.78738582 231.9375 126.1875 C231.16688232 125.90962646 230.39626465 125.63175293 229.60229492 125.34545898 C203.09764023 116.66376492 172.78165487 120 146 120 Z " fill="#000000" transform="translate(554,1772)"/>
<path d="M0 0 C0.68497559 0.21849609 1.36995117 0.43699219 2.07568359 0.66210938 C26.61438924 8.57978556 49.21367231 22.58723127 67.56835938 40.59912109 C68.92047611 41.92218485 70.29554397 43.22167523 71.671875 44.51953125 C108.92430938 80.32583075 125.96426456 136.59571924 127.1081543 187.02685547 C127.18185796 191.47627969 127.19381141 195.92504728 127.1875 200.375 C127.18689575 201.16546722 127.1862915 201.95593445 127.18566895 202.77035522 C127.06178674 262.7149914 111.34357922 319.31058052 69.125 363.1875 C29.20959676 402.02239073 -25.6330908 413.98503186 -79.69039917 413.3221283 C-126.57197968 412.50886338 -173.38632709 398.73249503 -208 366 C-209.3292299 364.87015459 -210.66242507 363.74495361 -212 362.625 C-251.59326248 327.87179566 -268.3911577 272.72876057 -271.80810547 221.83349609 C-272.1629537 214.74465785 -272.19762142 207.65901841 -272.1875 200.5625 C-272.18659363 199.3805455 -272.18659363 199.3805455 -272.18566895 198.17471313 C-272.0672988 141.0416322 -257.96172996 85.39231819 -218 43 C-217.35160156 42.28714844 -216.70320313 41.57429688 -216.03515625 40.83984375 C-181.29646513 4.10084412 -129.26347775 -9.12876211 -80.390625 -10.86328125 C-53.0097345 -11.59024473 -26.05259247 -8.62661244 0 0 Z M-112 112 C-119.87402676 123.30770918 -124.25640516 135.84972728 -127.1875 149.25 C-127.34250977 149.95084717 -127.49751953 150.65169434 -127.65722656 151.3737793 C-130.93866737 167.5111045 -131.37095854 183.71686873 -131.3125 200.125 C-131.31100952 201.15981506 -131.30951904 202.19463013 -131.3079834 203.26080322 C-131.26888972 218.35417167 -130.92487037 233.14376097 -128 248 C-127.77521973 249.18263428 -127.77521973 249.18263428 -127.54589844 250.38916016 C-123.79765233 269.5322727 -117.10891552 288.543236 -100.6875 300.375 C-88.17021843 307.99327654 -72.96446158 309.6570103 -58.734375 306.71484375 C-45.11218583 303.1536143 -35.60103361 295.48864048 -28.48046875 283.42578125 C-6.67342248 242.95852829 -8.89336457 179.76794177 -21.16015625 136.80859375 C-25.74870544 121.71217347 -33.2144672 107.9965366 -47.45703125 100.1796875 C-54.00804398 97.14066162 -60.80353453 95.45494897 -68 95 C-68.73476562 94.94714844 -69.46953125 94.89429688 -70.2265625 94.83984375 C-86.41350757 94.23349239 -101.24878772 99.82350426 -112 112 Z " fill="#000000" transform="translate(1950,1914)"/>
<path d="M0 0 C0.77859375 0.71542969 1.5571875 1.43085937 2.359375 2.16796875 C37.50589412 35.38267565 45.73306967 85.26297535 49 131 C49 154.43 49 177.86 49 202 C-32.18 202 -113.36 202 -197 202 C-193.26463827 224.4121704 -188.31661415 243.25203781 -169.265625 256.96875 C-166.55358616 258.73681952 -163.81213929 260.39666088 -161 262 C-159.98292969 262.58394531 -159.98292969 262.58394531 -158.9453125 263.1796875 C-121.44120224 283.25450171 -67.49105653 273.6372593 -28.75 262.125 C-18.73344973 259.05117557 -8.85780781 255.544616 1 252 C6.1269824 272.60834284 11.03566498 293.26303183 15.7454834 313.97085571 C16.2901805 316.36537037 16.83632338 318.7595566 17.38391113 321.15341187 C18.15773885 324.54003819 18.92554402 327.92797084 19.69140625 331.31640625 C19.92535599 332.33777679 20.15930573 333.35914734 20.40034485 334.41146851 C20.61184677 335.35406525 20.82334869 336.29666199 21.04125977 337.26782227 C21.22729263 338.08887955 21.4133255 338.90993683 21.60499573 339.75587463 C22 342 22 342 22 346 C-37.48807026 375.67534221 -110.57708145 382.4077218 -176 372 C-177.01739258 371.83902832 -178.03478516 371.67805664 -179.08300781 371.51220703 C-208.03688663 366.68656056 -237.26367775 356.62299283 -261 339 C-262.16982422 338.14341797 -262.16982422 338.14341797 -263.36328125 337.26953125 C-268.37195577 333.48923632 -273.0241612 329.36012622 -277.640625 325.11328125 C-279.25005934 323.67171837 -280.90720913 322.28213332 -282.6015625 320.94140625 C-286.22382883 318.00937634 -289.03591801 314.58252767 -292 311 C-292.41056641 310.50709473 -292.82113281 310.01418945 -293.24414062 309.50634766 C-326.77434726 268.99272683 -337.75866871 217.16887355 -337.375 165.625 C-337.37067963 164.51513733 -337.36635925 163.40527466 -337.36190796 162.26177979 C-337.28638694 145.6760529 -336.81632557 129.3813981 -334 113 C-333.82839355 111.96456055 -333.65678711 110.92912109 -333.47998047 109.86230469 C-329.75861494 87.97309295 -323.8259584 66.94721948 -314 47 C-313.67918457 46.34064453 -313.35836914 45.68128906 -313.02783203 45.00195312 C-308.26248177 35.3115202 -302.55769538 26.56798808 -296 18 C-295.28070312 17.05511719 -294.56140625 16.11023437 -293.8203125 15.13671875 C-264.64034285 -21.79251024 -220.98581608 -41.28037113 -175 -47 C-113.08248767 -54.16035682 -46.30306783 -44.64938684 0 0 Z M-177.52734375 65.13671875 C-188.74091123 78.12178189 -194 95.05229664 -194 112 C-155.39 112 -116.78 112 -77 112 C-79.52570952 90.53146908 -83.49556218 73.4829391 -100 59 C-123.45127069 41.70239173 -156.83787966 45.0566645 -177.52734375 65.13671875 Z " fill="#000000" transform="translate(1386,1952)"/>
<path d="M0 0 C1.20462891 1.0209375 1.20462891 1.0209375 2.43359375 2.0625 C35.40377338 30.52916437 49.71330045 73.87315411 54 116 C56.1850386 146.5905404 55 177.33152179 55 208 C-26.18 208 -107.36 208 -191 208 C-186.92776127 231.07601949 -181.45980749 249.8958854 -161.625 263.8125 C-143.70196996 275.85449531 -123.21484093 279.41098638 -101.9375 279.3125 C-100.0035437 279.30512817 -100.0035437 279.30512817 -98.03051758 279.29760742 C-69.04524444 279.02753562 -40.37808997 274.54404433 -13 265 C-11.6372998 264.53013672 -11.6372998 264.53013672 -10.24707031 264.05078125 C-4.48735407 262.06345331 1.26026756 260.04428827 7 258 C8.63258595 262.64176955 9.86181456 267.32521666 10.97119141 272.11328125 C11.1568013 272.90431244 11.34241119 273.69534363 11.53364563 274.51034546 C12.14271702 277.11035059 12.74743608 279.71134174 13.3515625 282.3125 C13.77462751 284.12802533 14.19775468 285.94353618 14.62094116 287.7590332 C15.50559004 291.5579437 16.38777523 295.35741719 17.26855469 299.15722656 C18.39640113 304.02091805 19.53298173 308.88252282 20.67174721 313.7436676 C21.54783789 317.48987825 22.417954 321.23745803 23.28641891 324.98544312 C23.70290528 326.77845092 24.12154853 328.57095917 24.54240799 330.36294556 C25.13041294 332.86946219 25.71000962 335.37778429 26.28759766 337.88671875 C26.4621196 338.62248138 26.63664154 339.35824402 26.81645203 340.11630249 C27.73563675 344.15387483 28.17770351 347.86078011 28 352 C-17.12469401 375.33022366 -66.09450535 381.22095859 -116.25 381.25 C-117.30492645 381.25067474 -118.35985291 381.25134949 -119.44674683 381.25204468 C-144.53484963 381.2266569 -168.61345786 379.25308108 -193 373 C-193.76699219 372.80680176 -194.53398437 372.61360352 -195.32421875 372.41455078 C-224.97236914 364.7991741 -252.70480452 349.85610394 -274.56835938 328.40087891 C-275.92047611 327.07781515 -277.29554397 325.77832477 -278.671875 324.48046875 C-309.0686141 295.26372729 -323.26869645 253.84394419 -329 213 C-329.11714355 212.21463867 -329.23428711 211.42927734 -329.35498047 210.62011719 C-338.20983961 149.0702939 -328.91946287 76.61225159 -291.29638672 25.87109375 C-276.24916445 6.10188998 -257.98911433 -9.46064137 -236 -21 C-235.37319336 -21.33241699 -234.74638672 -21.66483398 -234.10058594 -22.00732422 C-164.96972185 -58.12897882 -59.58548418 -51.5732166 0 0 Z M-174.03125 74.2734375 C-183.28954322 86.49600881 -188 102.80354944 -188 118 C-149.39 118 -110.78 118 -71 118 C-72.43062799 97.97120812 -76.47573517 82.31933694 -91 68 C-91.57621094 67.41347656 -92.15242188 66.82695313 -92.74609375 66.22265625 C-102.82127082 56.72734549 -117.63121435 53.58208471 -131.10546875 53.7890625 C-148.11412658 55.02855983 -162.59161909 61.4698506 -174.03125 74.2734375 Z " fill="#000000" transform="translate(3295,1946)"/>
<path d="M0 0 C0 42.57 0 85.14 0 129 C29.04 129 58.08 129 88 129 C88 163.98 88 198.96 88 235 C58.96 235 29.92 235 0 235 C0.09061287 264.59089147 0.09061287 264.59089147 0.20898438 294.18164062 C0.26343283 306.25202043 0.31484752 318.32235809 0.34643555 330.39282227 C0.369457 339.18444456 0.40290126 347.97595588 0.44870156 356.76749009 C0.47257791 361.41969474 0.49134325 366.07178987 0.49761391 370.72405434 C0.50369012 375.10962189 0.52378093 379.4949094 0.55427551 383.880373 C0.56301527 385.48345236 0.56678681 387.08656837 0.56500816 388.68967056 C0.55463659 402.3600963 1.72305368 414.55382237 11.6875 424.75 C23.95146827 434.13019279 40.32674667 432.84988528 54.75 430.9375 C69.83133919 428.77684169 84.83166552 424.66274835 99.16894531 419.53320312 C101 419 101 419 104 419 C104 452.99 104 486.98 104 522 C82.34758603 532.82620699 59.00672951 539.75540817 35 543 C34.2678125 543.10296387 33.535625 543.20592773 32.78125 543.31201172 C6.13823819 546.87303927 -23.61146331 547.37936462 -50 542 C-51.23169922 541.75056641 -51.23169922 541.75056641 -52.48828125 541.49609375 C-79.42655253 535.7690597 -103.14519218 522.49068171 -118.43359375 499.02490234 C-136.9485106 469.21262237 -140.1896306 433.90697374 -140.11352539 399.61181641 C-140.11324267 397.80681866 -140.11340291 396.0018208 -140.1139679 394.19682312 C-140.11425255 389.34035875 -140.10840991 384.48391953 -140.10139394 379.62746096 C-140.09510472 374.53593355 -140.09455222 369.44440545 -140.09336853 364.35287476 C-140.09027154 354.73081718 -140.08208032 345.10877108 -140.07201904 335.48671854 C-140.060807 324.5240889 -140.05533467 313.56145869 -140.05032361 302.59882474 C-140.0398962 280.06587534 -140.0215712 257.53294167 -140 235 C-155.84 235 -171.68 235 -188 235 C-188 200.02 -188 165.04 -188 129 C-172.16 129 -156.32 129 -140 129 C-140 94.35 -140 59.7 -140 24 C-105.47373402 17.98141356 -105.47373402 17.98141356 -91.04296875 15.46875 C-81.06541988 13.73145749 -71.08793398 11.99380861 -61.11083984 10.25390625 C-53.84568745 8.98694022 -46.58033107 7.72115168 -39.3147248 6.45679092 C-35.46583024 5.78696357 -31.61704211 5.11653737 -27.76849747 4.44470215 C-24.14912193 3.8128918 -20.52947661 3.18265139 -16.90961456 2.55363464 C-14.94171193 2.21124879 -12.97410227 1.86718044 -11.00650024 1.52307129 C-9.84259766 1.32113159 -8.67869507 1.11919189 -7.47952271 0.91113281 C-6.46370684 0.73414856 -5.44789097 0.55716431 -4.4012928 0.37481689 C-2 0 -2 0 0 0 Z " fill="#000000" transform="translate(2511,1782)"/>
<path d="M0 0 C0 42.57 0 85.14 0 129 C29.04 129 58.08 129 88 129 C88 163.98 88 198.96 88 235 C58.96 235 29.92 235 0 235 C0.09067791 263.80671326 0.09067791 263.80671326 0.20898438 292.61328125 C0.26338842 304.36733578 0.31480495 316.12134745 0.34643555 327.87548828 C0.36949014 336.43751211 0.4029708 344.99942261 0.44870156 353.56135643 C0.47253362 358.09013703 0.49132776 362.61880609 0.49761391 367.14764786 C0.50371044 371.42078082 0.52387273 375.69362878 0.55427551 379.96665573 C0.5629832 381.52493553 0.56679363 383.08325268 0.56500816 384.64155579 C0.5545514 397.99328018 1.02113416 412.30806107 10 423 C18.49436344 430.93818488 29.75653711 432.5771306 41 432.28125 C60.74574254 431.07968352 80.32737242 426.41932897 98.890625 419.6640625 C101 419 101 419 104 419 C104 453.32 104 487.64 104 523 C77.08526397 533.53185323 77.08526397 533.53185323 68.9375 535.8125 C67.95547607 536.09182373 66.97345215 536.37114746 65.96166992 536.65893555 C55.75482461 539.47577302 45.47450938 541.48616003 35 543 C34.22350098 543.11714355 33.44700195 543.23428711 32.64697266 543.35498047 C19.76540362 545.20858234 6.79966582 545.20399178 -6.1875 545.25 C-7.03213806 545.25535767 -7.87677612 545.26071533 -8.74700928 545.26623535 C-24.28400493 545.34091613 -39.69182889 544.51715638 -54.8125 540.6875 C-55.69502441 540.46876221 -56.57754883 540.25002441 -57.48681641 540.0246582 C-83.55418655 533.3657559 -105.40238014 519.7510243 -119.5390625 496.42431641 C-126.96618083 483.57527538 -131.59375603 469.88191606 -134.8125 455.4375 C-135.0074707 454.56536865 -135.20244141 453.6932373 -135.40332031 452.79467773 C-138.58778761 437.41853072 -139.29406718 422.0696557 -139.22705078 406.42333984 C-139.2264849 404.53893541 -139.22680668 402.65453053 -139.22793579 400.77012634 C-139.22850339 395.71552849 -139.21684647 390.66102795 -139.20278788 385.60645247 C-139.19018035 380.30141173 -139.18910219 374.99636811 -139.18673706 369.6913147 C-139.18055147 359.67271577 -139.1641807 349.65416114 -139.14403808 339.63558161 C-139.1215875 328.21821715 -139.11066274 316.80085043 -139.10064721 305.38346934 C-139.07981148 281.92228278 -139.0431723 258.46115683 -139 235 C-155.17 235 -171.34 235 -188 235 C-188 200.02 -188 165.04 -188 129 C-171.83 129 -155.66 129 -139 129 C-139 94.02 -139 59.04 -139 23 C-134.29113703 21.82278426 -129.89220082 20.73246264 -125.15408325 19.96224976 C-123.51378395 19.69307991 -123.51378395 19.69307991 -121.84034729 19.41847229 C-120.66600632 19.22929733 -119.49166534 19.04012238 -118.28173828 18.84521484 C-116.39748894 18.53753929 -116.39748894 18.53753929 -114.47517395 18.22364807 C-111.0525678 17.66489795 -107.62929138 17.11036166 -104.20585871 16.55670118 C-100.61765562 15.9757396 -97.03004355 15.39114975 -93.44235229 14.80703735 C-87.42580886 13.82803205 -81.4088467 12.85163584 -75.39160156 11.87695312 C-68.43139387 10.74950901 -61.47176054 9.61857456 -54.51244366 8.48564565 C-47.09781241 7.27862299 -39.68279035 6.07401529 -32.26764059 4.87018251 C-30.13077826 4.52310709 -27.99398792 4.17559129 -25.85721207 3.82798386 C-21.88574927 3.1820676 -17.91385115 2.53886865 -13.94189453 1.89599609 C-12.16216499 1.60616096 -12.16216499 1.60616096 -10.34648132 1.31047058 C-9.2698674 1.13666367 -8.19325348 0.96285675 -7.08401489 0.78378296 C-6.14495867 0.63151937 -5.20590244 0.47925579 -4.23838997 0.32237816 C-2 0 -2 0 0 0 Z " fill="#000000" transform="translate(2829,1782)"/>
<path d="M0 0 C45.54 0 91.08 0 138 0 C138 181.83 138 363.66 138 551 C92.46 551 46.92 551 0 551 C0 369.17 0 187.34 0 0 Z " fill="#000000" transform="translate(1487,1769)"/>
<path d="M0 0 C45.54 0 91.08 0 138 0 C138 134.97 138 269.94 138 409 C92.46 409 46.92 409 0 409 C0 274.03 0 139.06 0 0 Z " fill="#000000" transform="translate(2131,1911)"/>
<path d="M0 0 C0.58910156 0.44601563 1.17820312 0.89203125 1.78515625 1.3515625 C16.35238038 12.70006057 24.55912861 31.66394868 27.5859375 49.44140625 C30.13109993 71.31539659 24.89308694 92.55251294 11.59375 110.19140625 C2.25283696 121.98124138 -9.13462261 130.22026385 -23 136 C-23.66523682 136.27811523 -24.33047363 136.55623047 -25.01586914 136.84277344 C-32.75873626 139.63541898 -40.60944975 139.52375392 -48.73852539 139.50097656 C-51.16610094 139.50000853 -53.59046013 139.54164254 -56.01757812 139.5859375 C-75.43107168 139.73387738 -91.38093417 132.81001755 -106 120 C-106.68835937 119.40703125 -107.37671875 118.8140625 -108.0859375 118.203125 C-121.88148143 105.44361006 -130.57940187 86.01300998 -131.3359375 67.3359375 C-131.70007182 43.54055098 -126.41339765 23.82627254 -110 6 C-109.46117188 5.36964844 -108.92234375 4.73929688 -108.3671875 4.08984375 C-97.33535826 -8.07843021 -80.73574193 -14.81301429 -65 -18 C-64.30003906 -18.144375 -63.60007812 -18.28875 -62.87890625 -18.4375 C-40.42257805 -21.93946151 -17.06282713 -14.6252804 0 0 Z " fill="#86BB24" transform="translate(3514,2188)"/>
<path d="M0 0 C45.54 0 91.08 0 138 0 C138 30.69 138 61.38 138 93 C92.46 93 46.92 93 0 93 C0 62.31 0 31.62 0 0 Z " fill="#000000" transform="translate(2131,1769)"/>
</svg>
