<?xml version="1.0" encoding="UTF-8"?>
<svg version="1.1" xmlns="http://www.w3.org/2000/svg" width="199" height="199">
<path d="M0 0 C0.99 0 1.98 0 3 0 C3 1.32 3 2.64 3 4 C3.99 4 4.98 4 6 4 C10.455 13.405 10.455 13.405 15 23 C16.32 21.02 17.64 19.04 19 17 C22.58561008 13.20949791 25.72677793 12.25162014 30.7890625 11.8984375 C35.23914569 12.10285828 38.04373138 14.17295687 41.3125 17 C44.33914253 20.58713189 44.34978102 24.22476307 44.26953125 28.71875 C43.83253926 32.4173489 42.51537087 34.29597631 40 37 C37.42396489 38.57806731 34.79054936 39.84855973 32 41 C37.30604399 42.76868133 42.14157481 42.8577347 47.25 40.5 C51.95088089 36.22647192 54.93709536 31.00117713 57 25 C57.66 25 58.32 25 59 25 C59.74053296 38.67928939 59.74053296 38.67928939 55 45 C54.34257812 45.68964844 53.68515625 46.37929687 53.0078125 47.08984375 C50.28020597 51.04328124 49.60393945 54.91297079 48.625 59.5625 C44.8758013 75.672429 37.89824393 88.11898401 23.82421875 97.46484375 C17.35567814 100.98093844 10.16278124 103.34162208 3 105 C16.74070024 106.12168982 32.61277985 100.08194242 43.19140625 91.5234375 C60.74691521 76.39779516 70.45591531 58.84769941 77 37 C77.66 37 78.32 37 79 37 C81.64 41.62 84.28 46.24 87 51 C88.7325 50.05125 90.465 49.1025 92.25 48.125 C95.47442567 46.35924309 98.69918209 44.61897259 102 43 C101.21233254 57.70312586 95.46543534 73.70254491 86 85 C81.67379048 83.64805953 78.74886842 81.3316575 75.35546875 78.4375 C72.03423233 76.41060945 68.79725136 75.82531691 65 75 C65.49927002 75.32274902 65.99854004 75.64549805 66.51293945 75.97802734 C68.77960102 77.44346634 71.04605266 78.90922969 73.3125 80.375 C74.09818359 80.88289063 74.88386719 81.39078125 75.69335938 81.9140625 C76.45068359 82.40390625 77.20800781 82.89375 77.98828125 83.3984375 C79.03302612 84.07398682 79.03302612 84.07398682 80.09887695 84.76318359 C81.7399808 85.83083893 83.37098455 86.9139897 85 88 C78.51334702 105.70764035 59.57224636 119.06798218 43.18798828 126.90649414 C19.92450168 137.4423495 -7.97767567 139.12141364 -32.07080078 130.23632812 C-50.20601611 123.27120283 -72.97147872 109.7871401 -81.26953125 91.1484375 C-81.51058594 90.43945312 -81.75164062 89.73046875 -82 89 C-79.10437383 87.22882776 -76.2084621 85.45812293 -73.3125 83.6875 C-72.49587891 83.18798828 -71.67925781 82.68847656 -70.83789062 82.17382812 C-66.90104254 79.76709104 -62.96241378 77.36453613 -59 75 C-66.49268858 75.98264768 -70.70386189 78.62612575 -76.51953125 83.41796875 C-79 85 -79 85 -81.14453125 84.96484375 C-89.65066931 80.54165196 -93.50121616 64.70256004 -96.1640625 56.34765625 C-96.89905301 53.40425967 -97.21755395 51.07050348 -97.125 48.0625 C-97.10695313 47.29035156 -97.08890625 46.51820312 -97.0703125 45.72265625 C-97.04710938 45.15417969 -97.02390625 44.58570313 -97 44 C-96.25234375 44.433125 -95.5046875 44.86625 -94.734375 45.3125 C-93.74953125 45.869375 -92.7646875 46.42625 -91.75 47 C-90.77546875 47.556875 -89.8009375 48.11375 -88.796875 48.6875 C-85.91140311 50.28321504 -85.91140311 50.28321504 -82 50 C-79.69 45.71 -77.38 41.42 -75 37 C-74.34 37 -73.68 37 -73 37 C-72.79431396 37.6391333 -72.58862793 38.2782666 -72.37670898 38.93676758 C-66.94266262 55.82253204 -66.94266262 55.82253204 -58 71 C-57 72.66666667 -56 74.33333333 -55 76 C-45.07173284 90.22632712 -31.4844422 98.88645875 -15 104 C-14.70222656 103.39929688 -14.40445313 102.79859375 -14.09765625 102.1796875 C-13.24129743 100.47916003 -12.34667635 98.79788448 -11.4375 97.125 C-9.15193232 92.15637461 -8.57821391 88.74676874 -10.125 83.5 C-14.39048121 72.16329883 -24.82373624 66.9431598 -35.1875 61.9375 C-41.9728906 58.64847039 -47.43489435 55.67665143 -51.875 49.3125 C-53.74908425 43.79436305 -54.86915988 37.60747965 -53 32 C-52.34 32 -51.68 32 -51 32 C-50.09670782 33.19353032 -49.25218518 34.43181714 -48.4375 35.6875 C-45.04899255 40.30670023 -41.45622084 43.15234493 -36 45 C-32.61506656 45.36351447 -29.38595821 45.31809628 -26 45 C-26.53109375 44.69707031 -27.0621875 44.39414063 -27.609375 44.08203125 C-33.15202693 40.79487454 -37.18042877 38.1612033 -38.875 31.625 C-39.04080867 26.81654869 -38.69722835 23.13956548 -35.62109375 19.26171875 C-31.85248163 15.59803318 -28.46042964 14.07366968 -23.20703125 13.83203125 C-18.30297683 14.20526017 -15.03118435 15.91307596 -11.6875 19.4375 C-10.27036373 21.58944767 -9.12300383 23.69024103 -8 26 C-4.67032583 17.48099322 -2.24532165 8.84991142 0 0 Z M4 5 C5 9 5 9 5 9 Z M5 9 C6 13 6 13 6 13 Z M6 13 C6.46337703 18.97512484 7.10265932 24.88603355 8 30.8125 C10.08780759 45.22460462 10.12829414 59.46920876 10 74 C10.33 74 10.66 74 11 74 C14.24276049 56.30598429 14.8746339 29.23301036 6 13 Z " fill="#E21F25" transform="translate(97,64)"/>
<path d="M0 0 C5.2434816 3.96552818 9.97610952 8.38719255 14.64453125 13 C15.52367187 13.85464844 16.4028125 14.70929687 17.30859375 15.58984375 C34.82869925 33.62524647 41.57764128 57.46153065 42.64453125 82 C32.74453125 82 22.84453125 82 12.64453125 82 C12.39703125 79.6075 12.14953125 77.215 11.89453125 74.75 C9.65242982 55.87833976 1.04953824 39.23212907 -13.91796875 27.25 C-29.85673896 15.89719309 -48.16763956 11.6049117 -67.54199219 14.3046875 C-80.30119528 16.71742634 -91.64440426 22.47321167 -101.35546875 31 C-102.37060547 31.87398437 -102.37060547 31.87398437 -103.40625 32.765625 C-117.58580349 45.87138706 -122.413479 63.46282507 -124.35546875 82 C-133.92546875 82 -143.49546875 82 -153.35546875 82 C-153.35546875 66.86635202 -153.35546875 66.86635202 -151.66796875 60 C-151.39678223 58.85591675 -151.39678223 58.85591675 -151.12011719 57.6887207 C-145.01913526 32.93920926 -129.67745184 11.66124523 -108.09667969 -1.94775391 C-74.83336569 -22.04939206 -32.40400055 -21.76460607 0 0 Z " fill="#04A0E2" transform="translate(154.35546875,16)"/>
<path d="M0 0 C0.66 0 1.32 0 2 0 C4.64 4.62 7.28 9.24 10 14 C11.7325 13.05125 13.465 12.1025 15.25 11.125 C18.47442567 9.35924309 21.69918209 7.61897259 25 6 C24.21233254 20.70312586 18.46543534 36.70254491 9 48 C5.46998029 46.89686884 2.93372931 45.25950867 0.0625 43 C-5.07425024 39.04865366 -9.46424799 37.55438054 -16 38 C-16.99 38.495 -16.99 38.495 -18 39 C-16.57914625 35.9075536 -14.83227974 33.4325766 -12.75 30.75 C-8.00962891 24.08385316 -5.58817482 16.68479394 -3 9 C-2.48566406 7.50146484 -2.48566406 7.50146484 -1.9609375 5.97265625 C-1.28983941 3.98758573 -0.64122452 1.99492073 0 0 Z " fill="#E21D23" transform="translate(174,101)"/>
<path d="M0 0 C0.66 0 1.32 0 2 0 C2.20568604 0.6391333 2.41137207 1.2782666 2.62329102 1.93676758 C7.98151386 18.85956043 7.98151386 18.85956043 17 34 C17.66 34.99 18.32 35.98 19 37 C17 38 17 38 13.5625 38.125 C6.91570214 38.8445616 0.6433379 43.3566621 -4 48 C-6.56699423 47.80412494 -7.69398153 47.31563162 -9.4921875 45.4609375 C-15.80995228 35.93074995 -22.48124389 22.6404265 -22.125 11.0625 C-22.10695313 10.29035156 -22.08890625 9.51820312 -22.0703125 8.72265625 C-22.04710938 8.15417969 -22.02390625 7.58570312 -22 7 C-21.25234375 7.433125 -20.5046875 7.86625 -19.734375 8.3125 C-18.74953125 8.869375 -17.7646875 9.42625 -16.75 10 C-15.77546875 10.556875 -14.8009375 11.11375 -13.796875 11.6875 C-10.91140311 13.28321504 -10.91140311 13.28321504 -7 13 C-4.69 8.71 -2.38 4.42 0 0 Z " fill="#E11D23" transform="translate(22,101)"/>
<path d="M0 0 C2.64 1.65 5.28 3.3 8 5 C10.31 3.35 12.62 1.7 15 0 C16 2 16 2 15.44140625 3.9453125 C15.15136719 4.66460937 14.86132812 5.38390625 14.5625 6.125 C14.13130859 7.21167969 14.13130859 7.21167969 13.69140625 8.3203125 C13.46324219 8.87460937 13.23507813 9.42890625 13 10 C14.1446875 10.4021875 14.1446875 10.4021875 15.3125 10.8125 C18 12 18 12 21 15 C17.7 15.33 14.4 15.66 11 16 C10.01 18.64 9.02 21.28 8 24 C5.87491756 20.81237635 5.4979837 18.73487777 5 15 C1.7 15 -1.6 15 -5 15 C-2.74259377 12.66475218 -0.7194239 10.81294927 2 9 C1.67 8.2575 1.34 7.515 1 6.75 C0 4 0 4 0 0 Z " fill="#009FE2" transform="translate(91,39)"/>
<path d="M0 0 C0.99 0 1.98 0 3 0 C3.66 0.66 4.32 1.32 5 2 C5.33 1.67 5.66 1.34 6 1 C7.76586914 0.97827148 7.76586914 0.97827148 10.03515625 1.12109375 C10.84404297 1.16943359 11.65292969 1.21777344 12.48632812 1.26757812 C13.7615332 1.35168945 13.7615332 1.35168945 15.0625 1.4375 C16.34350586 1.51581055 16.34350586 1.51581055 17.65039062 1.59570312 C19.76721995 1.72578761 21.88365244 1.86229971 24 2 C24 2.66 24 3.32 24 4 C22.35 4 20.7 4 19 4 C19 4.66 19 5.32 19 6 C20.32 6.33 21.64 6.66 23 7 C21.68 7 20.36 7 19 7 C19 7.66 19 8.32 19 9 C20.65 9 22.3 9 24 9 C24 9.33 24 9.66 24 10 C21.69 10 19.38 10 17 10 C17 8.02 17 6.04 17 4 C15.68 4 14.36 4 13 4 C13 5.98 13 7.96 13 10 C12.34 10 11.68 10 11 10 C11 8.02 11 6.04 11 4 C10.01 4.33 9.02 4.66 8 5 C7.26676204 7.01508358 7.26676204 7.01508358 7 9 C6.01 9 5.02 9 4 9 C3.34 8.01 2.68 7.02 2 6 C1.67 6.66 1.34 7.32 1 8 C0.34 8 -0.32 8 -1 8 C-0.67 5.36 -0.34 2.72 0 0 Z " fill="#FBEBEC" transform="translate(78,179)"/>
<path d="M0 0 C-0.33 1.32 -0.66 2.64 -1 4 C-0.01 4.33 0.98 4.66 2 5 C2 5.66 2 6.32 2 7 C0.68 7.33 -0.64 7.66 -2 8 C-1.34 8.66 -0.68 9.32 0 10 C-0.375 12.625 -0.375 12.625 -1 15 C-3.97 14.505 -3.97 14.505 -7 14 C-6.67 12.35 -6.34 10.7 -6 9 C-6.66 8.67 -7.32 8.34 -8 8 C-8 5.69 -8 3.38 -8 1 C-4.93251126 -0.86240388 -3.40254489 -1.2151946 0 0 Z " fill="#78CCF0" transform="translate(185,70)"/>
<path d="M0 0 C2.31 0 4.62 0 7 0 C6.67 2.64 6.34 5.28 6 8 C-3.25 8 -3.25 8 -8 7 C-8.5625 5.0625 -8.5625 5.0625 -9 3 C-8 2 -8 2 -5.625 1.8125 C-3 2 -3 2 0 4 C0 2.68 0 1.36 0 0 Z " fill="#97D8F3" transform="translate(102,10)"/>
<path d="M0 0 C0 0.99 0 1.98 0 3 C0.99 3 1.98 3 3 3 C3 3.66 3 4.32 3 5 C3.66 5 4.32 5 5 5 C5 5.99 5 6.98 5 8 C2.91796875 9.859375 2.91796875 9.859375 0.1875 11.75 C-0.70582031 12.38421875 -1.59914062 13.0184375 -2.51953125 13.671875 C-3.33808594 14.11015625 -4.15664062 14.5484375 -5 15 C-8.75376152 13.74874616 -9.24073289 12.4347596 -11 9 C-11 8.34 -11 7.68 -11 7 C-10.01 7 -9.02 7 -8 7 C-7.01 8.485 -7.01 8.485 -6 10 C-4.68 9.67 -3.36 9.34 -2 9 C-2.99 7.35 -3.98 5.7 -5 4 C-3.35 2.68 -1.7 1.36 0 0 Z " fill="#FAE1E2" transform="translate(148,163)"/>
<path d="M0 0 C2.81939117 2.20979308 5.53058944 4.40062046 8 7 C6.79618552 9.49361571 5.54571278 11.68143083 4 14 C3.34 14 2.68 14 2 14 C2.33 12.35 2.66 10.7 3 9 C1.02 9.99 1.02 9.99 -1 11 C-1.33 9.68 -1.66 8.36 -2 7 C-2.99 7 -3.98 7 -5 7 C-3.70700306 4.11562221 -2.34058637 2.12780579 0 0 Z " fill="#F8D1D2" transform="translate(41,157)"/>
<path d="M0 0 C2.5625 0.1875 2.5625 0.1875 4.5625 2.1875 C4.00694444 6.74305556 4.00694444 6.74305556 2.5625 8.1875 C0.125 8.375 0.125 8.375 -2.4375 8.1875 C-3.0975 7.5275 -3.7575 6.8675 -4.4375 6.1875 C-3.71780303 0.28598485 -3.71780303 0.28598485 0 0 Z " fill="#F7C1C3" transform="translate(127.4375,175.8125)"/>
<path d="M0 0 C2.31 0 4.62 0 7 0 C6.979375 0.763125 6.95875 1.52625 6.9375 2.3125 C6.87057159 5.10185786 6.87057159 5.10185786 8 8 C6.68 7.34 5.36 6.68 4 6 C3.67 6.66 3.34 7.32 3 8 C2.01 8 1.02 8 0 8 C0 5.36 0 2.72 0 0 Z " fill="#FCF2F2" transform="translate(103,181)"/>
<path d="M0 0 C3.16115776 1.36983503 3.9927092 1.9890638 6 5 C5.01 5 4.02 5 3 5 C3 5.66 3 6.32 3 7 C2.01 7 1.02 7 0 7 C0 7.99 0 8.98 0 10 C-1.65 8.68 -3.3 7.36 -5 6 C-3.86695008 2.60085025 -2.87481525 1.94745549 0 0 Z " fill="#DAF1FA" transform="translate(162,34)"/>
<path d="M0 0 C0 2.97 0 5.94 0 9 C-0.99 9 -1.98 9 -3 9 C-3.33 8.34 -3.66 7.68 -4 7 C-6.02463255 6.34786708 -6.02463255 6.34786708 -8 6 C-3.375 0 -3.375 0 0 0 Z " fill="#FCEBEC" transform="translate(64,173)"/>
<path d="M0 0 C1.32 0.33 2.64 0.66 4 1 C4.93065133 3.60582371 5.14917407 4.64198224 4.0625 7.25 C3.711875 7.8275 3.36125 8.405 3 9 C1.35 8.67 -0.3 8.34 -2 8 C-2.33 6.68 -2.66 5.36 -3 4 C-2.01 4.495 -2.01 4.495 -1 5 C-1 5.66 -1 6.32 -1 7 C-0.34 7 0.32 7 1 7 C0.34 6.01 -0.32 5.02 -1 4 C-0.625 1.8125 -0.625 1.8125 0 0 Z " fill="#FADFE0" transform="translate(53,168)"/>
<path d="M0 0 C0.66 0.33 1.32 0.66 2 1 C2 1.33 2 1.66 2 2 C2.66 2 3.32 2 4 2 C4 2.99 4 3.98 4 5 C4.99 4.67 5.98 4.34 7 4 C6.04247992 6.47359354 5.50503355 7.73064878 3.125 9 C1 9 1 9 -1.25 7.0625 C-1.8275 6.381875 -2.405 5.70125 -3 5 C-1.125 1.125 -1.125 1.125 0 0 Z " fill="#FBE7E7" transform="translate(159,152)"/>
<path d="M0 0 C1.8125 0.375 1.8125 0.375 4 1 C4.7425 1.185625 5.485 1.37125 6.25 1.5625 C6.8275 1.706875 7.405 1.85125 8 2 C8 2.66 8 3.32 8 4 C5.09451118 6.04169485 3.59857954 7 0 7 C0 6.34 0 5.68 0 5 C-0.66 5 -1.32 5 -2 5 C-1.125 1.125 -1.125 1.125 0 0 Z " fill="#E3F4FB" transform="translate(165,42)"/>
<path d="M0 0 C0.99 0 1.98 0 3 0 C3 0.66 3 1.32 3 2 C2.01 2.495 2.01 2.495 1 3 C1 3.99 1 4.98 1 6 C1.99 6.33 2.98 6.66 4 7 C4 6.34 4 5.68 4 5 C3.34 4.67 2.68 4.34 2 4 C2.99 3.34 3.98 2.68 5 2 C5.66 3.32 6.32 4.64 7 6 C5.8125 7.5625 5.8125 7.5625 4 9 C-0.42105263 8.57894737 -0.42105263 8.57894737 -2 7 C-2.1875 4.5625 -2.1875 4.5625 -2 2 C-1.34 1.34 -0.68 0.68 0 0 Z " fill="#FCECEC" transform="translate(153,158)"/>
<path d="M0 0 C3.24271506 0.5590888 4.93057424 1.4132178 7 4 C7 4.66 7 5.32 7 6 C4 8 4 8 1.3125 7.625 C0.549375 7.41875 -0.21375 7.2125 -1 7 C-0.67 4.69 -0.34 2.38 0 0 Z " fill="#CCECF9" transform="translate(40,30)"/>
<path d="M0 0 C0 0.66 0 1.32 0 2 C-0.33 2.33 -0.66 2.66 -1 3 C-0.67 3.66 -0.34 4.32 0 5 C-0.99 5 -1.98 5 -3 5 C-3 5.66 -3 6.32 -3 7 C-1.35 6.67 0.3 6.34 2 6 C2 6.66 2 7.32 2 8 C-0.31 8.33 -2.62 8.66 -5 9 C-6.42944945 6.64561267 -7.08661261 5.51967567 -6.625 2.75 C-6.41875 2.1725 -6.2125 1.595 -6 1 C-3.92446352 0.4465236 -2.15634036 0 0 0 Z " fill="#DDF2FA" transform="translate(74,13)"/>
<path d="M0 0 C1.98 0 3.96 0 6 0 C6.33 0.99 6.66 1.98 7 3 C5.68 3 4.36 3 3 3 C3.66 3.33 4.32 3.66 5 4 C5 4.66 5 5.32 5 6 C3.35 5.67 1.7 5.34 0 5 C0 5.66 0 6.32 0 7 C1.32 7.33 2.64 7.66 4 8 C4 8.33 4 8.66 4 9 C2.35 9 0.7 9 -1 9 C-2.25541557 5.23375329 -1.37061958 3.62811066 0 0 Z " fill="#EDF8FC" transform="translate(21,56)"/>
<path d="M0 0 C2.625 0.375 2.625 0.375 5 1 C4.34 1.66 3.68 2.32 3 3 C2.34 2.67 1.68 2.34 1 2 C1 3.65 1 5.3 1 7 C1.99 7 2.98 7 4 7 C4 6.34 4 5.68 4 5 C4.66 5 5.32 5 6 5 C6 5.99 6 6.98 6 8 C3.125 8.625 3.125 8.625 0 9 C-2 7 -2 7 -2.25 4.5 C-2 2 -2 2 0 0 Z " fill="#F9D9DA" transform="translate(117,178)"/>
<path d="M0 0 C0.99 0 1.98 0 3 0 C3.33 1.65 3.66 3.3 4 5 C4.66 5 5.32 5 6 5 C6.33 4.34 6.66 3.68 7 3 C7 4.98 7 6.96 7 9 C6.01 9 5.02 9 4 9 C3.34 8.01 2.68 7.02 2 6 C1.67 6.66 1.34 7.32 1 8 C0.34 8 -0.32 8 -1 8 C-0.67 5.36 -0.34 2.72 0 0 Z " fill="#FCF0F1" transform="translate(78,179)"/>
<path d="M0 0 C1.65 0.33 3.3 0.66 5 1 C5 1.66 5 2.32 5 3 C4.01 3.33 3.02 3.66 2 4 C2.66 4.66 3.32 5.32 4 6 C2.68 6 1.36 6 0 6 C0 6.66 0 7.32 0 8 C0.99 8 1.98 8 3 8 C3 8.66 3 9.32 3 10 C0.03 9.505 0.03 9.505 -3 9 C-2.01 6.03 -1.02 3.06 0 0 Z " fill="#EBF7FC" transform="translate(18,66)"/>
<path d="M0 0 C1.875 0.25 1.875 0.25 4 1 C5.25 3.0625 5.25 3.0625 6 5 C5.34 5 4.68 5 4 5 C3.67 4.67 3.34 4.34 3 4 C2.67 5.65 2.34 7.3 2 9 C0.68 8.67 -0.64 8.34 -2 8 C-2.33 6.35 -2.66 4.7 -3 3 C-2.34 3 -1.68 3 -1 3 C-1 4.32 -1 5.64 -1 7 C-0.34 7 0.32 7 1 7 C0.67 4.69 0.34 2.38 0 0 Z " fill="#FCEDEE" transform="translate(34,152)"/>
<path d="M0 0 C2.125 0.375 2.125 0.375 4 1 C4.625 2.875 4.625 2.875 5 5 C4.34 5.66 3.68 6.32 3 7 C0.875 6.625 0.875 6.625 -1 6 C-1.625 4.125 -1.625 4.125 -2 2 C-1.34 1.34 -0.68 0.68 0 0 Z " fill="#BCE5F7" transform="translate(16,77)"/>
<path d="M0 0 C1.65 0 3.3 0 5 0 C5.33 1.65 5.66 3.3 6 5 C1.25 6.125 1.25 6.125 -1 5 C-0.67 3.35 -0.34 1.7 0 0 Z " fill="#DCF1FA" transform="translate(179,79)"/>
<path d="M0 0 C1.32 0 2.64 0 4 0 C4 0.66 4 1.32 4 2 C4.66 2 5.32 2 6 2 C5.25 3.9375 5.25 3.9375 4 6 C1.9375 6.8125 1.9375 6.8125 0 7 C-1 6 -1 6 -1.125 3.5 C-1 1 -1 1 0 0 Z " fill="#B6E4F6" transform="translate(35,37)"/>
<path d="M0 0 C0.99 0 1.98 0 3 0 C3.66 0.99 4.32 1.98 5 3 C8.58357241 3.25015873 8.58357241 3.25015873 12 3 C7.5 7 7.5 7 3 7 C0 2.92857143 0 2.92857143 0 0 Z " fill="#F9D3D4" transform="translate(137,170)"/>
<path d="M0 0 C0.33 1.98 0.66 3.96 1 6 C-0.65 6.66 -2.3 7.32 -4 8 C-4.66 6.02 -5.32 4.04 -6 2 C-2.25 0 -2.25 0 0 0 Z " fill="#BEE6F7" transform="translate(180,62)"/>
<path d="M0 0 C1.65 0 3.3 0 5 0 C5.33 1.65 5.66 3.3 6 5 C3.625 5.625 3.625 5.625 1 6 C0.34 5.34 -0.32 4.68 -1 4 C-0.625 1.875 -0.625 1.875 0 0 Z " fill="#C1E7F7" transform="translate(94,12)"/>
<path d="M0 0 C2.00720923 0.28674418 4.0085944 0.61866701 6 1 C5.67 2.65 5.34 4.3 5 6 C3.35 5.67 1.7 5.34 0 5 C-0.5625 3.0625 -0.5625 3.0625 -1 1 C-0.67 0.67 -0.34 0.34 0 0 Z " fill="#A7DEF5" transform="translate(135,20)"/>
<path d="M0 0 C-0.33 1.32 -0.66 2.64 -1 4 C-2.65 4.33 -4.3 4.66 -6 5 C-6.33 3.35 -6.66 1.7 -7 0 C-4.3333581 -1.33332095 -2.83319697 -0.67102033 0 0 Z " fill="#C4E8F8" transform="translate(63,22)"/>
<path d="M0 0 C1.2065625 0.0309375 1.2065625 0.0309375 2.4375 0.0625 C3.5625 3.8125 3.5625 3.8125 2.4375 6.0625 C0.7875 5.7325 -0.8625 5.4025 -2.5625 5.0625 C-3.125 3.125 -3.125 3.125 -3.5625 1.0625 C-2.5625 0.0625 -2.5625 0.0625 0 0 Z " fill="#C4E9F8" transform="translate(113.5625,12.9375)"/>
<path d="M0 0 C1.98 0 3.96 0 6 0 C6 1.98 6 3.96 6 6 C3.69 6 1.38 6 -1 6 C-0.67 4.02 -0.34 2.04 0 0 Z " fill="#D3EEF9" transform="translate(179,86)"/>
<path d="M0 0 C0.33 0 0.66 0 1 0 C1 1.65 1 3.3 1 5 C2.32 5 3.64 5 5 5 C4.67 3.35 4.34 1.7 4 0 C4.99 0.33 5.98 0.66 7 1 C7.042721 2.66611905 7.04063832 4.33382885 7 6 C6 7 6 7 3 7.125 C0 7 0 7 -1 6 C-1.125 3.5 -1.125 3.5 -1 1 C-0.67 0.67 -0.34 0.34 0 0 Z " fill="#EAF7FC" transform="translate(13,85)"/>
<path d="M0 0 C1.98 0.66 3.96 1.32 6 2 C6 3.32 6 4.64 6 6 C6.99 6.33 7.98 6.66 9 7 C5.37 7 1.74 7 -2 7 C-1.34 5.68 -0.68 4.36 0 3 C0 2.01 0 1.02 0 0 Z " fill="#ED7579" transform="translate(97,183)"/>
<path d="M0 0 C1.67542976 0.28604898 3.34385343 0.61781233 5 1 C5 2.32 5 3.64 5 5 C3.02 5.99 3.02 5.99 1 7 C1.66 5.35 2.32 3.7 3 2 C2.34 2 1.68 2 1 2 C0.67 2.99 0.34 3.98 0 5 C-0.66 5 -1.32 5 -2 5 C-1.125 1.125 -1.125 1.125 0 0 Z " fill="#D8F0FA" transform="translate(150,28)"/>
<path d="M0 0 C0.33 1.98 0.66 3.96 1 6 C-1.31 6.33 -3.62 6.66 -6 7 C-5.67 5.68 -5.34 4.36 -5 3 C-5.66 3 -6.32 3 -7 3 C-7 2.34 -7 1.68 -7 1 C-2.25 0 -2.25 0 0 0 Z " fill="#D3EEF9" transform="translate(83,13)"/>
<path d="M0 0 C1.5 1.375 1.5 1.375 3 3 C3 3.66 3 4.32 3 5 C4.65 4.67 6.3 4.34 8 4 C7.67 4.99 7.34 5.98 7 7 C5.35 7.33 3.7 7.66 2 8 C0.4375 5.6875 0.4375 5.6875 -1 3 C-0.67 2.01 -0.34 1.02 0 0 Z " fill="#FBE6E6" transform="translate(132,173)"/>
<path d="M0 0 C1.32 0.99 2.64 1.98 4 3 C2.79618552 5.49361571 1.54571278 7.68143083 0 10 C-0.66 10 -1.32 10 -2 10 C-1.67 8.35 -1.34 6.7 -1 5 C-1.66 5 -2.32 5 -3 5 C-3 4.34 -3 3.68 -3 3 C-2.01 3 -1.02 3 0 3 C0 2.01 0 1.02 0 0 Z " fill="#F8CDCF" transform="translate(45,161)"/>
<path d="M0 0 C0.99 0.33 1.98 0.66 3 1 C3 1.99 3 2.98 3 4 C3.3062434 5.33981486 3.63451555 6.67511887 4 8 C3.4225 7.690625 2.845 7.38125 2.25 7.0625 C0.15705816 6.07416636 -1.74535275 5.4831387 -4 5 C-3 2 -3 2 0 0 Z " fill="#E7F5FB" transform="translate(51,22)"/>
<path d="M0 0 C2.375 -0.1875 2.375 -0.1875 5 0 C5.66 0.99 6.32 1.98 7 3 C5.35 2.67 3.7 2.34 2 2 C2 2.66 2 3.32 2 4 C2.99 4 3.98 4 5 4 C5 4.66 5 5.32 5 6 C3.35 5.67 1.7 5.34 0 5 C-0.33 4.01 -0.66 3.02 -1 2 C-0.67 1.34 -0.34 0.68 0 0 Z " fill="#D2EEF9" transform="translate(127,17)"/>
<path d="M0 0 C-0.33 0.99 -0.66 1.98 -1 3 C-1.66 3 -2.32 3 -3 3 C-3 3.66 -3 4.32 -3 5 C-1.35 4.67 0.3 4.34 2 4 C2 4.66 2 5.32 2 6 C0.35 6.66 -1.3 7.32 -3 8 C-5 5 -5 5 -5 2 C-2 0 -2 0 0 0 Z " fill="#E6F5FB" transform="translate(173,48)"/>
<path d="M0 0 C1.32 0.33 2.64 0.66 4 1 C3.34 1 2.68 1 2 1 C2 1.66 2 2.32 2 3 C3.32 3.33 4.64 3.66 6 4 C4.68 4 3.36 4 2 4 C2 4.66 2 5.32 2 6 C3.65 6 5.3 6 7 6 C7 6.33 7 6.66 7 7 C4.69 7 2.38 7 0 7 C0 4.69 0 2.38 0 0 Z " fill="#FEFDFD" transform="translate(95,182)"/>
<path d="M0 0 C0.99 1.32 1.98 2.64 3 4 C2.34 4.66 1.68 5.32 1 6 C1 5.34 1 4.68 1 4 C0.34 4 -0.32 4 -1 4 C-1 4.66 -1 5.32 -1 6 C-1.99 6 -2.98 6 -4 6 C-4 4.35 -4 2.7 -4 1 C-2.68 0.67 -1.36 0.34 0 0 Z " fill="#E63A3F" transform="translate(122,179)"/>
<path d="M0 0 C1.65 0.33 3.3 0.66 5 1 C5.33 2.32 5.66 3.64 6 5 C5.34 5 4.68 5 4 5 C4 4.01 4 3.02 4 2 C3.01 2 2.02 2 1 2 C1.33 3.32 1.66 4.64 2 6 C1.01 5.67 0.02 5.34 -1 5 C-0.67 3.35 -0.34 1.7 0 0 Z " fill="#D8F0FA" transform="translate(173,56)"/>
<path d="M0 0 C2.97 0.495 2.97 0.495 6 1 C6 2.65 6 4.3 6 6 C5.34 6 4.68 6 4 6 C4 4.68 4 3.36 4 2 C3.34 2 2.68 2 2 2 C1.67 3.32 1.34 4.64 1 6 C0.34 6 -0.32 6 -1 6 C-0.67 4.02 -0.34 2.04 0 0 Z " fill="#E7F6FB" transform="translate(119,14)"/>
<path d="M0 0 C1.67542976 0.28604898 3.34385343 0.61781233 5 1 C3.68 1.33 2.36 1.66 1 2 C1 2.99 1 3.98 1 5 C2.65 4.67 4.3 4.34 6 4 C5.67 4.66 5.34 5.32 5 6 C3.02 6 1.04 6 -1 6 C-1.042721 4.33388095 -1.04063832 2.66617115 -1 1 C-0.67 0.67 -0.34 0.34 0 0 Z " fill="#D9F0FA" transform="translate(86,12)"/>
<path d="M0 0 C1.32 0.99 2.64 1.98 4 3 C3.67 3.66 3.34 4.32 3 5 C2.01 5 1.02 5 0 5 C0.33 5.99 0.66 6.98 1 8 C-0.32 7.67 -1.64 7.34 -3 7 C-2.67 5.68 -2.34 4.36 -2 3 C-1.34 3 -0.68 3 0 3 C0 2.01 0 1.02 0 0 Z " fill="#E94D52" transform="translate(156,157)"/>
<path d="M0 0 C0 0.66 0 1.32 0 2 C-2.64 2.66 -5.28 3.32 -8 4 C-8 3.01 -8 2.02 -8 1 C-4.93251126 -0.86240388 -3.40254489 -1.2151946 0 0 Z " fill="#D5EFF9" transform="translate(185,70)"/>
<path d="M0 0 C0.99 0.33 1.98 0.66 3 1 C2.34 3.31 1.68 5.62 1 8 C0.01 8 -0.98 8 -2 8 C-1.34 5.36 -0.68 2.72 0 0 Z " fill="#FADFE0" transform="translate(67,175)"/>
<path d="M0 0 C1.32 0 2.64 0 4 0 C4 0.66 4 1.32 4 2 C5.32 2 6.64 2 8 2 C7.67 2.99 7.34 3.98 7 5 C4.0625 4.1875 4.0625 4.1875 1 3 C0.67 2.01 0.34 1.02 0 0 Z " fill="#E2F4FB" transform="translate(25,47)"/>
<path d="M0 0 C1.32 0 2.64 0 4 0 C4 0.99 4 1.98 4 3 C5.32 3 6.64 3 8 3 C8 3.66 8 4.32 8 5 C5.69 4.67 3.38 4.34 1 4 C0.67 2.68 0.34 1.36 0 0 Z " fill="#DDF2FA" transform="translate(28,42)"/>
<path d="M0 0 C1.32 0.33 2.64 0.66 4 1 C4 2.65 4 4.3 4 6 C3.34 6 2.68 6 2 6 C2 5.34 2 4.68 2 4 C0.35 4.33 -1.3 4.66 -3 5 C-3 4.34 -3 3.68 -3 3 C-2.01 3 -1.02 3 0 3 C0 2.01 0 1.02 0 0 Z " fill="#1CAAE6" transform="translate(74,15)"/>
<path d="M0 0 C0.99 0 1.98 0 3 0 C2.125 5.75 2.125 5.75 1 8 C0.34 8 -0.32 8 -1 8 C-0.67 5.36 -0.34 2.72 0 0 Z " fill="#FCECEC" transform="translate(74,178)"/>
<path d="M0 0 C1.32 0.99 2.64 1.98 4 3 C4.33 2.34 4.66 1.68 5 1 C5 1.99 5 2.98 5 4 C4.01 4 3.02 4 2 4 C2 5.32 2 6.64 2 8 C1.34 8 0.68 8 0 8 C-0.38063221 5.6739143 -0.71269945 3.33944736 -1 1 C-0.67 0.67 -0.34 0.34 0 0 Z " fill="#FDF7F7" transform="translate(40,160)"/>
<path d="M0 0 C1.875 0.25 1.875 0.25 4 1 C5.25 3.0625 5.25 3.0625 6 5 C4 5 2 5 0 5 C0 3.35 0 1.7 0 0 Z " fill="#FBE3E4" transform="translate(34,152)"/>
<path d="M0 0 C0.99 0 1.98 0 3 0 C2.67 2.64 2.34 5.28 2 8 C1.34 8 0.68 8 0 8 C0 5.36 0 2.72 0 0 Z " fill="#DBF1FA" transform="translate(106,10)"/>
<path d="M0 0 C0.99 0 1.98 0 3 0 C4.20628008 2.33214148 5.1654738 4.49642139 6 7 C3.53199953 5.84826645 1.95216435 4.95216435 0 3 C0 2.01 0 1.02 0 0 Z " fill="#F8C9CA" transform="translate(105,182)"/>
<path d="M0 0 C0.99 0.33 1.98 0.66 3 1 C2.67 2.32 2.34 3.64 2 5 C0.68 5 -0.64 5 -2 5 C-1.125 1.125 -1.125 1.125 0 0 Z " fill="#A7DEF5" transform="translate(165,42)"/>
<path d="M0 0 C2.125 0.375 2.125 0.375 4 1 C1.94766315 3.2477975 0.99332739 4.0022242 -2 5 C-2 2 -2 2 0 0 Z " fill="#F9D4D6" transform="translate(59,175)"/>
<path d="M0 0 C0.33 0.66 0.66 1.32 1 2 C4.02934491 2.65772428 4.02934491 2.65772428 7 3 C6.34 3.66 5.68 4.32 5 5 C3.68 5 2.36 5 1 5 C1 4.34 1 3.68 1 3 C-0.32 2.67 -1.64 2.34 -3 2 C-2.01 2 -1.02 2 0 2 C0 1.34 0 0.68 0 0 Z " fill="#39B5E9" transform="translate(28,44)"/>
<path d="M0 0 C0.99 0.33 1.98 0.66 3 1 C2.34 1 1.68 1 1 1 C0.896875 1.61875 0.79375 2.2375 0.6875 2.875 C0 5 0 5 -3 7 C-3 3.48283697 -2.17554415 2.62878252 0 0 Z " fill="#D0EDF9" transform="translate(148,24)"/>
<path d="M0 0 C0.66 0 1.32 0 2 0 C2 0.99 2 1.98 2 3 C0.02 3.33 -1.96 3.66 -4 4 C-4.33 3.01 -4.66 2.02 -5 1 C-2.525 1.495 -2.525 1.495 0 2 C0 1.34 0 0.68 0 0 Z " fill="#FCF3F3" transform="translate(121,183)"/>
<path d="M0 0 C1.65 0 3.3 0 5 0 C5 0.99 5 1.98 5 3 C2.69 3.33 0.38 3.66 -2 4 C-1.34 2.68 -0.68 1.36 0 0 Z " fill="#F5B5B7" transform="translate(84,180)"/>
<path d="M0 0 C1.98 0 3.96 0 6 0 C5.67 0.99 5.34 1.98 5 3 C3.35 3 1.7 3 0 3 C0 2.01 0 1.02 0 0 Z " fill="#BFE7F7" transform="translate(179,86)"/>
<path d="M0 0 C2.475 0.495 2.475 0.495 5 1 C5 1.66 5 2.32 5 3 C4.34 3 3.68 3 3 3 C2.67 3.66 2.34 4.32 2 5 C1.34 4.67 0.68 4.34 0 4 C0 2.68 0 1.36 0 0 Z " fill="#95D7F3" transform="translate(178,80)"/>
<path d="M0 0 C1.65 0.33 3.3 0.66 5 1 C5 1.66 5 2.32 5 3 C3.02 3.33 1.04 3.66 -1 4 C-0.67 2.68 -0.34 1.36 0 0 Z " fill="#D7EFFA" transform="translate(18,66)"/>
<path d="M0 0 C1.98 0 3.96 0 6 0 C6.33 0.99 6.66 1.98 7 3 C4.69 3 2.38 3 0 3 C0 2.01 0 1.02 0 0 Z " fill="#D3EEF9" transform="translate(21,56)"/>
<path d="M0 0 C4.75 1.875 4.75 1.875 7 3 C7 3.66 7 4.32 7 5 C2.25 4.125 2.25 4.125 0 3 C0 2.01 0 1.02 0 0 Z " fill="#C7EAF8" transform="translate(22,50)"/>
<path d="M0 0 C2.0625 0.4375 2.0625 0.4375 4 1 C3.34 1 2.68 1 2 1 C2 1.99 2 2.98 2 4 C2.66 4.66 3.32 5.32 4 6 C2.68 5.67 1.36 5.34 0 5 C-0.5625 3.0625 -0.5625 3.0625 -1 1 C-0.67 0.67 -0.34 0.34 0 0 Z " fill="#E6F5FB" transform="translate(135,20)"/>
</svg>
